<svg width="900" height="560" viewBox="0 0 900 560" fill="none" xmlns="http://www.w3.org/2000/svg">
  <rect width="900" height="560" rx="18" fill="#F7EDE3"/>
  <rect x="24" y="24" width="852" height="72" rx="16" fill="#FFF9F3"/>
  <rect x="44" y="48" width="180" height="24" rx="12" fill="#D8B79A"/>
  <rect x="24" y="118" width="852" height="210" rx="16" fill="#E6C5A3"/>
  <rect x="46" y="146" width="460" height="24" rx="12" fill="#FFF5EA"/>
  <rect x="46" y="182" width="320" height="16" rx="8" fill="#F7E5D4"/>
  <rect x="46" y="208" width="360" height="16" rx="8" fill="#F7E5D4"/>
  <rect x="550" y="138" width="300" height="168" rx="14" fill="#FFF8F0"/>
  <rect x="24" y="348" width="206" height="188" rx="14" fill="#FFF8F0"/>
  <rect x="242" y="348" width="206" height="188" rx="14" fill="#FFF1E2"/>
  <rect x="460" y="348" width="206" height="188" rx="14" fill="#FFF8F0"/>
  <rect x="678" y="348" width="198" height="188" rx="14" fill="#FFF1E2"/>
</svg>
