<svg width="900" height="560" viewBox="0 0 900 560" fill="none" xmlns="http://www.w3.org/2000/svg">
  <rect width="900" height="560" rx="18" fill="#F3EDF4"/>
  <rect x="24" y="24" width="852" height="70" rx="16" fill="#FFFFFF"/>
  <rect x="46" y="48" width="140" height="22" rx="11" fill="#D8C2DD"/>
  <rect x="24" y="116" width="560" height="420" rx="16" fill="#FFFFFF"/>
  <rect x="44" y="136" width="520" height="230" rx="14" fill="#DDD0E4"/>
  <rect x="44" y="382" width="252" height="134" rx="12" fill="#EFE3F2"/>
  <rect x="312" y="382" width="252" height="134" rx="12" fill="#EFE3F2"/>
  <rect x="606" y="116" width="270" height="200" rx="16" fill="#FFFFFF"/>
  <rect x="626" y="140" width="190" height="15" rx="7" fill="#E9D9ED"/>
  <rect x="626" y="168" width="220" height="10" rx="5" fill="#F2E8F4"/>
  <rect x="626" y="190" width="220" height="10" rx="5" fill="#F2E8F4"/>
  <rect x="606" y="336" width="270" height="200" rx="16" fill="#FFFFFF"/>
  <rect x="626" y="360" width="228" height="156" rx="12" fill="#EDE0F1"/>
</svg>
