<svg width="900" height="620" viewBox="0 0 900 620" fill="none" xmlns="http://www.w3.org/2000/svg" role="img" aria-labelledby="heroTitle heroDesc">
  <title id="heroTitle">Moowre Dashboard Mockup</title>
  <desc id="heroDesc">Stylized dashboard with analytics cards and website preview blocks.</desc>
  <rect width="900" height="620" rx="28" fill="#FFF9F3"/>
  <rect x="24" y="24" width="852" height="64" rx="16" fill="#F4E7D8"/>
  <circle cx="56" cy="56" r="8" fill="#D6622F"/>
  <circle cx="82" cy="56" r="8" fill="#E6A167"/>
  <circle cx="108" cy="56" r="8" fill="#0B5F72"/>
  <rect x="146" y="44" width="150" height="24" rx="12" fill="#FFFFFF"/>
  <rect x="44" y="116" width="540" height="300" rx="20" fill="#FFFFFF" stroke="#E5D6C6"/>
  <rect x="66" y="144" width="168" height="14" rx="7" fill="#F1E1D0"/>
  <rect x="66" y="170" width="330" height="12" rx="6" fill="#F6ECE1"/>
  <rect x="66" y="194" width="282" height="12" rx="6" fill="#F6ECE1"/>
  <rect x="66" y="224" width="494" height="78" rx="14" fill="#FFF4E8"/>
  <rect x="66" y="312" width="238" height="78" rx="14" fill="#EAF7FA"/>
  <rect x="322" y="312" width="238" height="78" rx="14" fill="#FDF0E6"/>
  <rect x="606" y="116" width="250" height="132" rx="20" fill="#FFFFFF" stroke="#E5D6C6"/>
  <rect x="628" y="142" width="88" height="10" rx="5" fill="#EFE2D2"/>
  <rect x="628" y="162" width="206" height="54" rx="10" fill="#0B5F72"/>
  <rect x="606" y="264" width="250" height="152" rx="20" fill="#FFFFFF" stroke="#E5D6C6"/>
  <path d="M630 366C660 332 700 348 728 322C748 304 778 302 818 316" stroke="#D6622F" stroke-width="8" stroke-linecap="round"/>
  <rect x="44" y="440" width="812" height="144" rx="20" fill="#FFFFFF" stroke="#E5D6C6"/>
  <rect x="66" y="466" width="194" height="90" rx="12" fill="#FFF1E4"/>
  <rect x="276" y="466" width="194" height="90" rx="12" fill="#E8F5F8"/>
  <rect x="486" y="466" width="194" height="90" rx="12" fill="#FFF1E4"/>
  <rect x="696" y="466" width="138" height="90" rx="12" fill="#E8F5F8"/>
</svg>
